<svg width="173" height="34" viewBox="0 0 173 34" fill="none" xmlns="http://www.w3.org/2000/svg">
<g clip-path="url(#clip0_1_310)">
<path d="M10.5806 14.2864L17.3007 7.68565L24.0235 14.2918L27.9315 10.4489L17.3007 0L6.66992 10.4463L10.5806 14.2864Z" fill="#F3BA2F"/>
<path d="M3.90732 13.1591L-0.00195312 17.0005L3.90732 20.8419L7.81659 17.0005L3.90732 13.1591Z" fill="#F3BA2F"/>
<path d="M10.5822 19.7136L17.3022 26.3171L24.025 19.7109L27.9357 23.5484L27.933 23.5511L17.3022 34L6.67148 23.5564L6.66602 23.5511L10.5822 19.7136Z" fill="#F3BA2F"/>
<path d="M30.6886 13.16L26.7793 17.0015L30.6886 20.8429L34.5978 17.0015L30.6886 13.16Z" fill="#F3BA2F"/>
<path d="M21.2663 16.9988L17.3009 13.0996L14.3686 15.9811L14.0297 16.3114L13.3355 16.9935L13.3301 16.9988L13.3355 17.0069L17.3009 20.9007L21.2663 17.0015L21.269 16.9988H21.2663Z" fill="#F3BA2F"/>
<path d="M40.6973 8.23877H49.2019C51.3116 8.23877 52.9076 8.77048 53.9898 9.8339C54.3991 10.2329 54.7213 10.7097 54.937 11.2351C55.1526 11.7605 55.2572 12.3235 55.2442 12.8899V12.9409C55.2515 13.4028 55.1861 13.8629 55.0502 14.3051C54.9291 14.6858 54.7533 15.0475 54.5282 15.3793C54.3183 15.6922 54.0644 15.9743 53.7739 16.2171C53.4895 16.4563 53.1787 16.6634 52.8475 16.8348C53.8049 17.1613 54.6656 17.7147 55.3535 18.446C55.9629 19.1227 56.2663 20.0573 56.2663 21.2657V21.3167C56.2836 22.0658 56.1177 22.8081 55.7826 23.4812C55.4585 24.101 54.9823 24.6317 54.397 25.0253C53.7366 25.4628 53.0003 25.7777 52.2244 25.9544C51.303 26.1678 50.3589 26.2714 49.4123 26.2633H40.6973V8.23877ZM48.3492 15.527C49.085 15.5619 49.8173 15.4063 50.4727 15.0758C50.7282 14.9291 50.9369 14.715 51.0751 14.4578C51.2132 14.2006 51.2753 13.9105 51.2542 13.6203V13.5693C51.2678 13.302 51.2125 13.0356 51.0936 12.7949C50.9746 12.5541 50.7959 12.3466 50.5738 12.1917C50.1201 11.8748 49.4651 11.7164 48.6089 11.7164H44.6298V15.527H48.3492ZM49.4232 22.791C50.1563 22.8314 50.886 22.6666 51.5275 22.3157C51.7775 22.1579 51.9798 21.9372 52.1134 21.6765C52.247 21.4157 52.307 21.1246 52.2873 20.8334V20.7823C52.2971 20.5055 52.2377 20.2305 52.1143 19.9814C51.9909 19.7324 51.8073 19.5168 51.5795 19.3537C51.1094 18.9956 50.3497 18.8166 49.3003 18.8166H44.6298V22.791H49.4232Z" fill="#F3BA2F"/>
<path d="M61.334 8.23877H65.3704V26.2686H61.334V8.23877Z" fill="#F3BA2F"/>
<path d="M71.4785 8.23877H75.2007L83.8037 19.3349V8.23877H87.7881V26.2686H84.353L75.4685 14.8073V26.2686H71.4785V8.23877Z" fill="#F3BA2F"/>
<path d="M100.008 8.10986H103.724L111.587 26.2686H107.373L105.695 22.2244H97.9362L96.2582 26.2686H92.1426L100.008 8.10986ZM104.255 18.7226L101.811 12.8738L99.3792 18.7226H104.255Z" fill="#F3BA2F"/>
<path d="M115.951 8.23877H119.673L128.271 19.3349V8.23877H132.255V26.2686H128.82L119.936 14.8073V26.2686H115.951V8.23877Z" fill="#F3BA2F"/>
<path d="M146.783 26.5858C145.497 26.597 144.221 26.3512 143.034 25.8634C141.915 25.4111 140.9 24.7428 140.049 23.8983C139.198 23.0537 138.528 22.0499 138.079 20.9464C137.604 19.7932 137.364 18.5598 137.371 17.3157V17.2647C137.363 16.0241 137.603 14.794 138.079 13.6448C138.538 12.5461 139.206 11.5435 140.047 10.6908C140.901 9.82899 141.923 9.14574 143.053 8.68212C144.282 8.182 145.601 7.93257 146.931 7.949C147.717 7.94242 148.503 8.01077 149.276 8.1531C149.936 8.2785 150.583 8.46831 151.205 8.71972C151.769 8.95497 152.305 9.24939 152.804 9.59785C153.29 9.93783 153.747 10.3169 154.17 10.7311L151.604 13.6394C150.947 13.0467 150.212 12.5444 149.418 12.1463C148.637 11.7794 147.78 11.5955 146.914 11.6092C146.194 11.6017 145.48 11.7448 144.821 12.0291C144.161 12.3134 143.571 12.7323 143.088 13.2581C142.611 13.7793 142.237 14.383 141.984 15.0385C141.721 15.7352 141.589 16.4732 141.594 17.2164V17.2674C141.591 18.0095 141.724 18.7461 141.984 19.4426C142.233 20.1042 142.603 20.7151 143.077 21.2445C143.556 21.7768 144.145 22.2019 144.805 22.491C145.465 22.7801 146.181 22.9264 146.903 22.9202C147.824 22.9487 148.737 22.7541 149.563 22.3536C150.348 21.9317 151.075 21.4117 151.724 20.8068L154.293 23.3579C153.84 23.8417 153.349 24.2905 152.826 24.7006C152.311 25.1001 151.753 25.4415 151.161 25.7184C150.531 26.0101 149.866 26.2256 149.183 26.3602C148.393 26.5158 147.589 26.5914 146.783 26.5858Z" fill="#F3BA2F"/>
<path d="M159.057 8.23877H172.866V11.7674H163.027V15.4249H171.691V18.9536H163.041V22.74H173.002V26.2686H159.065L159.057 8.23877Z" fill="#F3BA2F"/>
</g>
<defs>
<clipPath id="clip0_1_310">
<rect width="173" height="34" rx="5" fill="white"/>
</clipPath>
</defs>
</svg>
