<svg width="178" height="63" viewBox="0 0 178 63" fill="none" xmlns="http://www.w3.org/2000/svg">
<g clip-path="url(#clip0_1_332)">
<path d="M19 42.9801V54L33 35L19 42.9801Z" fill="#2F3030"/>
<path d="M19 26V40L33 32.0804L19 26Z" fill="black"/>
<path d="M19 9V25.7042L33 32L19 9Z" fill="#2F3030"/>
<path d="M19 42.9801V54L6 35L19 42.9801Z" fill="#828384"/>
<path d="M19 26V40L6 32.0804L19 26Z" fill="#343535"/>
<path d="M19 9V25.7042L6 32L19 9Z" fill="#828384"/>
<path d="M55.4782 36.6188C55.605 38.6748 57.2822 41.2393 60.1226 41.2435C62.0616 41.2435 63.233 40.3453 64.0572 39.1902C64.1391 39.0934 64.2527 39.029 64.3777 39.0085C64.5027 38.988 64.6309 39.0127 64.7393 39.0783C64.7964 39.1119 64.846 39.1569 64.8852 39.2104C64.9243 39.2639 64.9522 39.3248 64.967 39.3895C64.9818 39.4542 64.9834 39.5212 64.9715 39.5865C64.9596 39.6518 64.9345 39.7139 64.8978 39.7692C64.3719 40.5653 63.6476 41.2099 62.7967 41.6389C61.9458 42.0679 60.9978 42.2664 60.0468 42.2148C58.2139 42.2148 56.8771 41.2476 55.9 40.1947C55.1103 39.3367 54.5039 37.8886 54.5039 36.1407C54.5039 34.4228 55.0216 33.0337 56.0571 31.9735C57.0934 30.9137 58.3337 30.144 60.0537 30.144C61.7736 30.144 63.0167 30.7921 64.002 31.8519C65.2727 33.2184 65.6172 34.6264 65.6682 36.1131C65.6704 36.1787 65.6594 36.2441 65.6359 36.3054C65.6124 36.3667 65.5768 36.4226 65.5313 36.4698C65.4858 36.5169 65.4312 36.5545 65.3709 36.5801C65.3106 36.6057 65.2458 36.6189 65.1803 36.6188H55.4782ZM60.0482 31.0919C58.7816 31.1016 57.8431 31.6612 57.0245 32.3783C56.2059 33.0954 55.6574 34.4509 55.5223 35.7055H64.5643C64.4729 34.5081 63.9776 33.3775 63.16 32.4999C62.442 31.7234 61.6923 31.0739 60.0482 31.0864V31.0919Z" fill="white"/>
<path d="M100.236 36.6188C100.363 38.6748 102.04 41.2393 104.88 41.2435C106.819 41.2435 107.991 40.3453 108.816 39.1902C108.898 39.0933 109.011 39.0287 109.136 39.0082C109.261 38.9877 109.389 39.0125 109.497 39.0783C109.554 39.1116 109.604 39.1564 109.644 39.2099C109.683 39.2634 109.711 39.3244 109.726 39.3892C109.741 39.454 109.742 39.5212 109.73 39.5865C109.718 39.6519 109.693 39.7141 109.656 39.7692C109.13 40.5653 108.405 41.2099 107.554 41.6389C106.704 42.0679 105.756 42.2664 104.805 42.2148C102.972 42.2148 101.635 41.2476 100.658 40.1947C99.8681 39.3367 99.2617 37.8886 99.2617 36.1407C99.2617 34.4228 99.7794 33.0337 100.815 31.9735C101.851 30.9137 103.092 30.144 104.811 30.144C106.531 30.144 107.774 30.7921 108.76 31.8519C110.03 33.2184 110.375 34.6264 110.426 36.1131C110.428 36.1787 110.417 36.2441 110.394 36.3054C110.37 36.3667 110.335 36.4226 110.289 36.4698C110.244 36.5169 110.189 36.5545 110.129 36.5801C110.068 36.6057 110.004 36.6189 109.938 36.6188H100.236ZM104.806 31.0919C103.539 31.1016 102.594 31.6612 101.782 32.3783C100.971 33.0954 100.415 34.4509 100.28 35.7055H109.322C109.232 34.5066 108.738 33.3742 107.921 32.4944C107.198 31.7234 106.45 31.0739 104.806 31.0864V31.0919Z" fill="white"/>
<path d="M127.934 36.6188C128.061 38.6748 129.738 41.2393 132.577 41.2435C134.518 41.2435 135.689 40.3453 136.513 39.1902C136.595 39.0917 136.71 39.0261 136.837 39.0055C136.963 38.985 137.093 39.0108 137.202 39.0783C137.259 39.1119 137.309 39.1569 137.348 39.2104C137.387 39.2639 137.415 39.3248 137.43 39.3895C137.445 39.4542 137.446 39.5212 137.434 39.5865C137.422 39.6518 137.397 39.7139 137.361 39.7692C136.835 40.5653 136.111 41.2099 135.26 41.6389C134.409 42.0679 133.461 42.2664 132.51 42.2148C130.677 42.2148 129.34 41.2476 128.363 40.1947C127.573 39.3367 126.967 37.8886 126.967 36.1407C126.967 34.4228 127.485 33.0337 128.52 31.9735C129.556 30.9137 130.795 30.144 132.517 30.144C134.238 30.144 135.48 30.7921 136.465 31.8519C137.736 33.2184 138.08 34.6264 138.131 36.1131C138.133 36.1787 138.122 36.244 138.098 36.3052C138.075 36.3664 138.039 36.4222 137.994 36.4693C137.948 36.5165 137.894 36.554 137.834 36.5797C137.773 36.6054 137.709 36.6187 137.643 36.6188H127.934ZM132.504 31.0919C131.238 31.1016 130.292 31.6612 129.481 32.3783C128.669 33.0954 128.112 34.4509 127.978 35.7055H137.02C136.931 34.5068 136.437 33.3744 135.62 32.4944C134.897 31.7234 134.148 31.0739 132.504 31.0864V31.0919Z" fill="white"/>
<path d="M74.7318 31.2906V41.6011C74.7318 41.7213 74.6842 41.8365 74.5994 41.9215C74.5147 42.0065 74.3997 42.0543 74.2798 42.0543C74.16 42.0539 74.0453 42.006 73.9606 41.9211C73.8759 41.8362 73.8281 41.7211 73.8278 41.6011V31.2906H71.2438C71.132 31.2843 71.0268 31.2353 70.9499 31.1537C70.8729 31.0722 70.8301 30.9641 70.8301 30.8519C70.8301 30.7396 70.8729 30.6316 70.9499 30.55C71.0268 30.4684 71.132 30.4195 71.2438 30.4132H73.8278V26.5941C73.8281 26.4726 73.8765 26.3563 73.9623 26.2706C74.048 26.1849 74.1642 26.1367 74.2853 26.1367H74.2936C74.4097 26.1371 74.521 26.1835 74.6031 26.2658C74.6852 26.3481 74.7315 26.4597 74.7318 26.5761V30.4132H77.3971C77.4567 30.4098 77.5162 30.4187 77.5722 30.4392C77.6282 30.4598 77.6795 30.4915 77.7228 30.5326C77.7661 30.5737 77.8006 30.6232 77.8242 30.6781C77.8478 30.733 77.8599 30.7921 77.8599 30.8519C77.8599 30.9117 77.8478 30.9708 77.8242 31.0257C77.8006 31.0806 77.7661 31.1301 77.7228 31.1712C77.6795 31.2122 77.6282 31.244 77.5722 31.2645C77.5162 31.2851 77.4567 31.2939 77.3971 31.2906H74.7318Z" fill="white"/>
<path d="M89.2945 30.2835C87.5029 30.0348 85.7981 30.6345 84.6267 32.5758V21.1337C84.6264 21.0173 84.5801 20.9058 84.498 20.8234C84.4159 20.7411 84.3046 20.6947 84.1885 20.6943H84.1788C84.0579 20.6947 83.9421 20.743 83.8567 20.8287C83.7712 20.9144 83.723 21.0305 83.7227 21.1517V41.6013C83.7227 41.7213 83.7701 41.8363 83.8546 41.9213C83.939 42.0062 84.0537 42.0541 84.1733 42.0545C84.2931 42.0541 84.4079 42.0063 84.4925 41.9214C84.5772 41.8365 84.625 41.7214 84.6253 41.6013V34.6926C84.6253 32.7582 87.0715 30.6718 89.2903 31.1692C90.7222 31.4912 92.15 32.9116 92.1445 35.1887V41.6041C92.1448 41.7242 92.1926 41.8392 92.2773 41.9241C92.362 42.009 92.4767 42.0569 92.5965 42.0573C92.7164 42.0573 92.8314 42.0095 92.9161 41.9245C93.0009 41.8395 93.0485 41.7243 93.0485 41.6041V35.2053C93.1739 33.2556 91.8371 30.6345 89.2945 30.2835Z" fill="white"/>
<path d="M148.057 42.2504C149.848 42.4992 151.553 41.8995 152.725 39.9582V41.6038C152.725 41.7202 152.771 41.8318 152.853 41.9141C152.935 41.9964 153.047 42.0428 153.163 42.0432H153.172C153.293 42.0428 153.409 41.9945 153.495 41.9088C153.58 41.8231 153.628 41.707 153.629 41.5858V30.9327C153.628 30.8129 153.581 30.698 153.496 30.6131C153.412 30.5282 153.297 30.4802 153.178 30.4795C153.058 30.4799 152.943 30.5277 152.859 30.6126C152.774 30.6975 152.726 30.8126 152.726 30.9327L152.781 36.5771C152.781 39.5077 150.502 41.8525 148.115 41.344C146.68 41.0387 145.201 39.6252 145.207 37.3495V30.9327C145.206 30.8126 145.159 30.6975 145.074 30.6126C144.989 30.5277 144.875 30.4799 144.755 30.4795C144.635 30.4799 144.52 30.5277 144.436 30.6126C144.351 30.6975 144.303 30.8126 144.303 30.9327V37.3287C144.304 39.7219 145.514 41.9036 148.057 42.2504Z" fill="white"/>
<path d="M174.237 30.2832C172.474 30.04 170.253 30.8027 169.324 33.3022C168.784 31.8583 167.564 30.5263 165.803 30.2832C164.011 30.0344 162.29 30.583 161.117 32.5243V30.8787C161.117 30.7624 161.07 30.651 160.988 30.5689C160.906 30.4868 160.795 30.4407 160.679 30.4407H160.669C160.548 30.441 160.432 30.4893 160.347 30.575C160.261 30.6607 160.213 30.7768 160.213 30.898V41.5498C160.213 41.67 160.261 41.7853 160.345 41.8703C160.43 41.9552 160.545 42.003 160.665 42.003C160.785 42.0026 160.899 41.9548 160.984 41.8699C161.069 41.7849 161.117 41.6699 161.117 41.5498L161.062 35.9054C161.062 32.9762 163.358 30.6811 165.747 31.1896C167.126 31.4825 168.548 32.8034 168.65 34.9299V41.5498C168.65 41.5664 168.65 41.5816 168.65 41.5981C168.65 41.8482 168.925 42.0514 169.174 42.0514C169.293 42.0514 169.408 42.0036 169.493 41.9186C169.578 41.8336 169.626 41.7183 169.626 41.5981V40.0561C169.626 39.0419 169.634 37.7072 169.634 36.6737C169.634 33.5081 171.056 30.706 174.182 31.1896C175.631 31.4134 177.096 32.9084 177.091 35.1855V41.6009C177.091 41.7211 177.139 41.8364 177.223 41.9214C177.308 42.0064 177.423 42.0541 177.543 42.0541C177.663 42.0538 177.777 42.0059 177.862 41.921C177.947 41.8361 177.995 41.721 177.995 41.6009V35.2049C178.122 33.2553 176.779 30.6341 174.237 30.2832Z" fill="white"/>
<path d="M122.266 30.9187C122.266 30.851 122.251 30.7841 122.222 30.7229C122.193 30.6617 122.151 30.6078 122.098 30.565C121.987 30.4893 121.852 30.4569 121.719 30.4738C119.859 30.5208 118.1 32.0434 117.648 33.2055V30.8496C117.647 30.7334 117.601 30.6223 117.519 30.5402C117.437 30.4582 117.326 30.412 117.21 30.4116H117.2C117.079 30.412 116.964 30.4603 116.878 30.546C116.793 30.6317 116.745 30.7478 116.744 30.869V41.5221C116.745 41.6421 116.792 41.757 116.877 41.8417C116.962 41.9264 117.077 41.9739 117.196 41.9739C117.316 41.9739 117.431 41.9264 117.515 41.8417C117.6 41.757 117.648 41.6421 117.648 41.5221L117.677 36.1886C117.677 33.6324 119.644 31.4631 121.918 31.3526C122.018 31.3368 122.108 31.2847 122.173 31.2062C122.237 31.1278 122.27 31.0284 122.266 30.927V30.9187Z" fill="white"/>
</g>
<defs>
<clipPath id="clip0_1_332">
<rect width="178" height="63" rx="5" fill="white"/>
</clipPath>
</defs>
</svg>
