<svg width="181" height="39" viewBox="0 0 181 39" fill="none" xmlns="http://www.w3.org/2000/svg">
<path d="M74.6797 27.64V10.36H85.5997V12.388H76.8157V17.8H84.1597V19.828H76.8157V25.612H85.5997V27.64H74.6797Z" fill="white"/>
<path d="M91.9884 27.64L87.2844 14.68H89.4444L93.0804 24.916L96.7044 14.68H98.8764L94.1724 27.64H91.9884Z" fill="white"/>
<path d="M106.194 28C104.922 28 103.81 27.72 102.858 27.16C101.914 26.592 101.178 25.804 100.65 24.796C100.122 23.78 99.8581 22.596 99.8581 21.244C99.8581 19.828 100.118 18.604 100.638 17.572C101.158 16.532 101.882 15.732 102.81 15.172C103.746 14.604 104.842 14.32 106.098 14.32C107.402 14.32 108.51 14.62 109.422 15.22C110.342 15.82 111.03 16.676 111.486 17.788C111.95 18.9 112.15 20.224 112.086 21.76H109.926V20.992C109.902 19.4 109.578 18.212 108.954 17.428C108.33 16.636 107.402 16.24 106.17 16.24C104.85 16.24 103.846 16.664 103.158 17.512C102.47 18.36 102.126 19.576 102.126 21.16C102.126 22.688 102.47 23.872 103.158 24.712C103.846 25.552 104.826 25.972 106.098 25.972C106.954 25.972 107.698 25.776 108.33 25.384C108.962 24.992 109.458 24.428 109.818 23.692L111.87 24.4C111.366 25.544 110.606 26.432 109.59 27.064C108.582 27.688 107.45 28 106.194 28ZM101.406 21.76V20.044H110.982V21.76H101.406Z" fill="white"/>
<path d="M114.758 27.64V14.68H116.666V17.812L116.354 17.404C116.506 17.004 116.702 16.636 116.942 16.3C117.19 15.964 117.466 15.688 117.77 15.472C118.106 15.2 118.486 14.992 118.91 14.848C119.334 14.704 119.766 14.62 120.206 14.596C120.646 14.564 121.058 14.592 121.442 14.68V16.684C120.994 16.564 120.502 16.532 119.966 16.588C119.43 16.644 118.934 16.84 118.478 17.176C118.062 17.472 117.738 17.832 117.506 18.256C117.282 18.68 117.126 19.14 117.038 19.636C116.95 20.124 116.906 20.624 116.906 21.136V27.64H114.758Z" fill="white"/>
<path d="M128.138 27.988C126.594 27.988 125.326 27.652 124.334 26.98C123.35 26.3 122.746 25.352 122.522 24.136L124.706 23.788C124.882 24.492 125.286 25.052 125.918 25.468C126.55 25.876 127.334 26.08 128.27 26.08C129.158 26.08 129.854 25.896 130.358 25.528C130.862 25.16 131.114 24.66 131.114 24.028C131.114 23.66 131.03 23.364 130.862 23.14C130.694 22.908 130.346 22.692 129.818 22.492C129.298 22.292 128.51 22.052 127.454 21.772C126.31 21.468 125.41 21.152 124.754 20.824C124.098 20.496 123.63 20.116 123.35 19.684C123.07 19.252 122.93 18.728 122.93 18.112C122.93 17.352 123.138 16.688 123.554 16.12C123.97 15.544 124.55 15.1 125.294 14.788C126.046 14.476 126.918 14.32 127.91 14.32C128.894 14.32 129.774 14.476 130.55 14.788C131.326 15.1 131.95 15.544 132.422 16.12C132.902 16.688 133.186 17.352 133.274 18.112L131.09 18.508C130.986 17.812 130.65 17.264 130.082 16.864C129.522 16.464 128.798 16.252 127.91 16.228C127.07 16.196 126.386 16.344 125.858 16.672C125.338 17 125.078 17.444 125.078 18.004C125.078 18.316 125.174 18.584 125.366 18.808C125.566 19.032 125.93 19.244 126.458 19.444C126.994 19.644 127.77 19.872 128.786 20.128C129.93 20.416 130.83 20.732 131.486 21.076C132.15 21.412 132.622 21.812 132.902 22.276C133.182 22.732 133.322 23.296 133.322 23.968C133.322 25.216 132.862 26.2 131.942 26.92C131.022 27.632 129.754 27.988 128.138 27.988Z" fill="white"/>
<path d="M141.429 28C140.117 28 139.001 27.708 138.081 27.124C137.169 26.532 136.473 25.72 135.993 24.688C135.513 23.656 135.265 22.48 135.249 21.16C135.265 19.808 135.517 18.62 136.005 17.596C136.501 16.564 137.209 15.76 138.129 15.184C139.049 14.608 140.157 14.32 141.453 14.32C142.821 14.32 143.997 14.656 144.981 15.328C145.973 16 146.637 16.92 146.973 18.088L144.861 18.724C144.589 17.972 144.145 17.388 143.529 16.972C142.921 16.556 142.221 16.348 141.429 16.348C140.541 16.348 139.809 16.556 139.233 16.972C138.657 17.38 138.229 17.948 137.949 18.676C137.669 19.396 137.525 20.224 137.517 21.16C137.533 22.6 137.865 23.764 138.513 24.652C139.169 25.532 140.141 25.972 141.429 25.972C142.277 25.972 142.981 25.78 143.541 25.396C144.101 25.004 144.525 24.44 144.813 23.704L146.973 24.268C146.525 25.476 145.825 26.4 144.873 27.04C143.921 27.68 142.773 28 141.429 28Z" fill="white"/>
<path d="M152.989 28C152.021 28 151.209 27.824 150.553 27.472C149.905 27.112 149.413 26.64 149.077 26.056C148.749 25.472 148.585 24.832 148.585 24.136C148.585 23.456 148.713 22.868 148.969 22.372C149.233 21.868 149.601 21.452 150.073 21.124C150.545 20.788 151.109 20.524 151.765 20.332C152.381 20.164 153.069 20.02 153.829 19.9C154.597 19.772 155.373 19.656 156.157 19.552C156.941 19.448 157.673 19.348 158.353 19.252L157.585 19.696C157.609 18.544 157.377 17.692 156.889 17.14C156.409 16.588 155.577 16.312 154.393 16.312C153.609 16.312 152.921 16.492 152.329 16.852C151.745 17.204 151.333 17.78 151.093 18.58L149.065 17.968C149.377 16.832 149.981 15.94 150.877 15.292C151.773 14.644 152.953 14.32 154.417 14.32C155.593 14.32 156.601 14.532 157.441 14.956C158.289 15.372 158.897 16.004 159.265 16.852C159.449 17.252 159.565 17.688 159.613 18.16C159.661 18.624 159.685 19.112 159.685 19.624V27.64H157.789V24.532L158.233 24.82C157.745 25.868 157.061 26.66 156.181 27.196C155.309 27.732 154.245 28 152.989 28ZM153.313 26.212C154.081 26.212 154.745 26.076 155.305 25.804C155.873 25.524 156.329 25.16 156.673 24.712C157.017 24.256 157.241 23.76 157.345 23.224C157.465 22.824 157.529 22.38 157.537 21.892C157.553 21.396 157.561 21.016 157.561 20.752L158.305 21.076C157.609 21.172 156.925 21.264 156.253 21.352C155.581 21.44 154.945 21.536 154.345 21.64C153.745 21.736 153.205 21.852 152.725 21.988C152.373 22.1 152.041 22.244 151.729 22.42C151.425 22.596 151.177 22.824 150.985 23.104C150.801 23.376 150.709 23.716 150.709 24.124C150.709 24.476 150.797 24.812 150.973 25.132C151.157 25.452 151.437 25.712 151.813 25.912C152.197 26.112 152.697 26.212 153.313 26.212Z" fill="white"/>
<path d="M163.045 27.64V10H165.181V27.64H163.045Z" fill="white"/>
<path d="M174.397 28C173.125 28 172.013 27.72 171.061 27.16C170.117 26.592 169.381 25.804 168.853 24.796C168.325 23.78 168.061 22.596 168.061 21.244C168.061 19.828 168.321 18.604 168.841 17.572C169.361 16.532 170.085 15.732 171.013 15.172C171.949 14.604 173.045 14.32 174.301 14.32C175.605 14.32 176.713 14.62 177.625 15.22C178.545 15.82 179.233 16.676 179.689 17.788C180.153 18.9 180.353 20.224 180.289 21.76H178.129V20.992C178.105 19.4 177.781 18.212 177.157 17.428C176.533 16.636 175.605 16.24 174.373 16.24C173.053 16.24 172.049 16.664 171.361 17.512C170.673 18.36 170.329 19.576 170.329 21.16C170.329 22.688 170.673 23.872 171.361 24.712C172.049 25.552 173.029 25.972 174.301 25.972C175.157 25.972 175.901 25.776 176.533 25.384C177.165 24.992 177.661 24.428 178.021 23.692L180.073 24.4C179.569 25.544 178.809 26.432 177.793 27.064C176.785 27.688 175.653 28 174.397 28ZM169.609 21.76V20.044H179.185V21.76H169.609Z" fill="white"/>
<g clip-path="url(#clip0_1_325)">
<rect width="48.3033" height="38.026" rx="5" fill="#292425"/>
<path d="M24.1761 0.0145022C28.1578 0.0145022 32.14 0.0323627 36.1217 0.00110785C37.0331 -0.00614774 37.6932 0.286866 38.2472 0.997913C39.5014 2.6081 40.7961 4.18702 42.0801 5.77488C43.6493 7.7164 45.221 9.65644 46.7951 11.595C47.1761 12.066 47.5651 12.5315 47.9258 13.0176C48.494 13.7839 48.4134 14.7863 47.7347 15.4589C45.9028 17.2746 44.0679 19.0872 42.23 20.8966C39.8736 23.2315 37.5186 25.5679 35.1652 27.9061C31.9579 31.0833 28.7492 34.259 25.539 37.4332C24.7392 38.2247 23.5662 38.2241 22.7726 37.4332C15.395 30.13 8.01751 22.8257 0.639985 15.5203C-0.136172 14.7523 -0.220159 13.7811 0.451721 12.9322C1.33215 11.816 2.23457 10.7109 3.13022 9.6036C4.39432 8.04086 5.65936 6.47812 6.92533 4.91537C8.04927 3.52397 9.16474 2.12476 10.2909 0.737271C10.7052 0.226031 11.2492 0.00780545 11.9199 0.0117123C16.0053 0.0206423 20.0907 0.0215718 24.1761 0.0145022ZM24.171 15.969H19.2108C18.8907 15.969 18.8473 16.0304 18.9555 16.3295C19.6146 18.1546 20.2739 19.9796 20.9334 21.8047C21.5872 23.6127 22.242 25.4202 22.8977 27.2274C23.2776 28.2763 23.6564 29.3252 24.034 30.3741C24.056 30.4349 24.0639 30.5153 24.14 30.5231C24.2415 30.5343 24.2482 30.44 24.2719 30.3724C24.3581 30.1274 24.441 29.8819 24.5301 29.6374C25.2613 27.6118 25.9941 25.5864 26.7283 23.5611C27.602 21.15 28.4775 18.7395 29.355 16.3295C29.4626 16.0332 29.4198 15.969 29.1008 15.969C27.4579 15.9679 25.8146 15.9679 24.171 15.969ZM28.7547 28.9174C28.9469 28.8694 28.9999 28.7745 29.0709 28.7042C33.2615 24.5574 37.4514 20.4087 41.6405 16.2581C41.7104 16.1889 41.8439 16.1253 41.8096 16.0226C41.7684 15.9065 41.6264 15.9667 41.5317 15.9667C39.0245 15.9634 36.5172 15.9634 34.0097 15.9667H33.5875C33.4601 15.9667 33.3885 16.0187 33.3423 16.147C32.7189 17.8958 32.0913 19.6446 31.4597 21.3934C30.6657 23.5942 29.8702 25.7945 29.0731 27.9943C28.9655 28.2867 28.8691 28.5825 28.7547 28.9185V28.9174ZM19.4955 28.8957C19.5631 28.784 19.4848 28.6975 19.4532 28.6082C19.2435 28.0222 19.0259 27.4362 18.8157 26.8524C18.1017 24.861 17.3878 22.8694 16.6738 20.8777C16.1163 19.3306 15.5465 17.7879 14.9952 16.2402C14.9236 16.0393 14.8261 15.9612 14.6108 15.9612C12.0018 15.9668 9.39246 15.9686 6.78273 15.9667C6.69649 15.9667 6.57417 15.9188 6.53303 16.0315C6.49526 16.1353 6.60574 16.1922 6.66943 16.2547C10.863 20.4101 15.058 24.5646 19.2542 28.7182C19.323 28.7868 19.3743 28.8873 19.4955 28.8968V28.8957ZM24.1569 12.2854C25.5642 12.2854 26.972 12.2854 28.3804 12.2854C28.461 12.2854 28.5613 12.3183 28.6166 12.2363C28.687 12.1308 28.5766 12.066 28.5309 11.9946C28.1176 11.3516 27.7027 10.7105 27.2863 10.0713C26.2917 8.54205 25.2974 7.01261 24.3035 5.48298C24.1733 5.28206 24.1017 5.32169 23.9912 5.49247C23.2397 6.65895 22.486 7.823 21.7304 8.98464C21.1064 9.94461 20.4768 10.9001 19.8568 11.8623C19.7858 11.9739 19.6431 12.0928 19.7311 12.2346C19.801 12.3462 19.9565 12.2843 20.0738 12.2848C21.4352 12.2885 22.7962 12.2891 24.1569 12.2865V12.2854ZM9.66246 12.2854H13.2101C13.528 12.2854 13.559 12.243 13.4514 11.9444C13.2259 11.3243 13.0004 10.7059 12.775 10.0858C12.2699 8.68828 11.766 7.29056 11.2632 5.89265C11.1663 5.62307 11.1235 5.61079 10.9391 5.83683C10.2323 6.70081 9.52831 7.56738 8.82711 8.43657C7.87228 9.61681 6.91857 10.7982 5.96599 11.9806C5.90962 12.051 5.81549 12.1191 5.86284 12.2218C5.91018 12.3244 6.03193 12.2837 6.11648 12.2837C7.29791 12.2874 8.4799 12.2884 9.66246 12.2865V12.2854ZM38.6559 12.2854C39.8388 12.2854 41.0225 12.2854 42.2069 12.2854C42.2932 12.2854 42.4098 12.3345 42.4589 12.2223C42.5079 12.1101 42.4053 12.0549 42.3462 11.9851C41.843 11.3619 41.3391 10.7386 40.8344 10.1154C39.6801 8.68735 38.5255 7.25949 37.3707 5.83181C37.1774 5.59349 37.1582 5.59852 37.0512 5.89265C36.3173 7.91044 35.5845 9.92824 34.8529 11.946C34.7537 12.2201 34.801 12.287 35.106 12.287C36.2896 12.2878 37.473 12.2878 38.6559 12.287V12.2854ZM17.5711 3.69643C16.6317 3.69643 15.6934 3.69643 14.7562 3.69643C14.4355 3.69643 14.418 3.70481 14.5246 4.01122C14.781 4.75631 15.0533 5.49526 15.3205 6.23645C15.7338 7.3806 16.1472 8.52419 16.5605 9.66723C16.587 9.74034 16.5768 9.86145 16.6732 9.87373C16.786 9.88713 16.813 9.76211 16.8598 9.69011C17.3716 8.9026 17.8744 8.10895 18.3873 7.32144C19.1126 6.20519 19.8408 5.09193 20.5721 3.98164C20.6171 3.91299 20.6848 3.84489 20.6397 3.75504C20.5946 3.66518 20.4892 3.69922 20.4103 3.69922C19.4667 3.69588 18.5186 3.69699 17.5711 3.69643ZM30.754 3.69643C29.8063 3.69643 28.8584 3.69643 27.9103 3.69643C27.6144 3.69643 27.5856 3.74443 27.7457 3.99336C28.3094 4.86998 28.8757 5.74437 29.4446 6.61653C30.1018 7.63231 30.7594 8.64735 31.4174 9.66164C31.4704 9.74313 31.5132 9.87485 31.6226 9.87206C31.7319 9.86926 31.7206 9.72973 31.7505 9.64881C32.0842 8.74279 32.4143 7.83566 32.7409 6.9274C33.096 5.9412 33.4432 4.95165 33.8028 3.96936C33.884 3.74611 33.8146 3.6903 33.5954 3.69364C32.6501 3.70034 31.702 3.69643 30.754 3.69588V3.69643Z" fill="#34A9F9"/>
</g>
<defs>
<clipPath id="clip0_1_325">
<rect width="48.3033" height="38.026" rx="5" fill="white"/>
</clipPath>
</defs>
</svg>
