<svg width="186" height="36" viewBox="0 0 186 36" fill="none" xmlns="http://www.w3.org/2000/svg">
<path d="M39.8866 18.176C39.8873 18.5373 39.8506 18.8977 39.777 19.2514C39.7686 19.2992 39.7577 19.3466 39.7446 19.3934C39.7446 19.4462 39.7202 19.4989 39.708 19.5476C39.6959 19.5963 39.6593 19.7221 39.6309 19.8073C39.6025 19.8925 39.5741 19.9778 39.5416 20.063C39.5092 20.1482 39.4767 20.2294 39.4402 20.3105C39.4037 20.3917 39.3672 20.4728 39.3266 20.554C39.286 20.6352 39.2454 20.7082 39.2048 20.7853C39.1643 20.8624 39.1156 20.9395 39.0669 21.0166C39.0182 21.0937 38.9735 21.1627 38.9208 21.2357C38.8193 21.3763 38.711 21.5117 38.5961 21.6415L38.4297 21.8282L38.235 22.023L36.2303 18.0542H33.1746L35.9178 23.3297L35.6216 23.3987H35.508C35.4384 23.4148 35.3679 23.427 35.2969 23.4352H35.159C34.9543 23.4596 34.7483 23.4718 34.5422 23.4717C33.131 23.475 31.7758 22.92 30.7723 21.9279C29.7688 20.9358 29.1984 19.5871 29.1855 18.176C29.1855 16.7586 29.7486 15.3992 30.7509 14.3969C31.7532 13.3946 33.1125 12.8316 34.53 12.8316C35.2328 12.83 35.9291 12.967 36.5789 13.2349C37.2288 13.5027 37.8194 13.8962 38.3169 14.3926C38.8145 14.889 39.2093 15.4787 39.4786 16.1279C39.7479 16.7772 39.8866 17.4731 39.8866 18.176Z" fill="#FD287E"/>
<path d="M58.5735 0V17.9974C58.5735 20.838 56.2766 23.4554 53.4522 23.4554C51.9677 23.4383 50.5507 22.8324 49.5127 21.7708C48.4748 20.7093 47.9008 19.279 47.9171 17.7945L48.0145 10.206H45.1211V17.8513C45.1232 20.0602 46.0017 22.178 47.5636 23.7399C49.1255 25.3019 51.2433 26.1803 53.4522 26.1824C55.532 26.1814 57.5264 25.3553 58.9977 23.8854C60.4691 22.4156 61.2973 20.4221 61.3005 18.3423V0H58.5735Z" fill="white"/>
<path d="M67.6641 10.0718H64.8438V26.2552H67.6641V10.0718Z" fill="white"/>
<path d="M83.1579 26.1987H71.418V10.1045H83.1579C85.3248 10.1066 87.4023 10.9684 88.9346 12.5006C90.4668 14.0329 91.3286 16.1104 91.3307 18.2774C91.3226 22.7818 87.6542 26.1987 83.1579 26.1987ZM74.1531 23.4717H83.1579C86.1608 23.4717 88.6037 21.2763 88.6037 18.2774C88.6027 16.8334 88.0286 15.4488 87.0075 14.4277C85.9864 13.4067 84.6019 12.8326 83.1579 12.8315H74.145L74.1531 23.4717Z" fill="white"/>
<path d="M132.531 26.227H135.728L127.657 10.21L119.646 26.227H122.82L127.657 16.5567L132.531 26.227Z" fill="white"/>
<path d="M127.657 16.5566L122.82 26.2269H132.531L127.657 16.5566Z" fill="#FD287E"/>
<path d="M138.148 26.2594V10.2261H140.835L147.449 23.086L153.942 10.2585H156.694V26.3771H154.044V16.1508L149.105 26.2594H145.916L140.867 16.3131V26.2837C140.867 26.2837 138.181 26.2918 138.148 26.2594Z" fill="white"/>
<path d="M163.097 12.8642H176.496V10.2427H160.41V26.2597H176.496V23.5409H163.097V12.8642Z" fill="white"/>
<path d="M176.495 12.8638H163.096V23.5405H176.495V12.8638Z" fill="#FD287E"/>
<path d="M122.97 35.4264H119.744L115.102 26.2512H104.665C102.584 26.249 100.589 25.4215 99.1175 23.9501C97.6461 22.4787 96.8186 20.4837 96.8164 18.4029C96.8186 16.194 97.697 14.0762 99.2589 12.5143C100.821 10.9524 102.939 10.0739 105.148 10.0718H118.016V10.1083L116.685 12.9489V12.9692V12.9489L105.196 12.8759C103.712 12.8596 102.281 13.4336 101.22 14.4715C100.158 15.5095 99.5524 16.9265 99.5353 18.411C99.5353 21.2517 102.169 23.5323 104.993 23.5323H113.722L111.722 19.5595H103.853V16.873H113.357L116.794 23.5079L118.206 26.2349L122.97 35.4264Z" fill="white"/>
<path d="M39.4896 24.5227C40.4811 23.7708 41.285 22.7996 41.8384 21.6851C42.3918 20.5706 42.6795 19.3431 42.6792 18.0988C42.6792 15.9614 41.8301 13.9115 40.3187 12.4001C38.8073 10.8887 36.7574 10.0396 34.62 10.0396C32.4821 10.0396 30.4318 10.8885 28.9198 12.3998C27.4077 13.9111 26.5577 15.961 26.5566 18.0988C26.5577 20.2366 27.4077 22.2865 28.9198 23.7978C30.4318 25.3091 32.4821 26.1581 34.62 26.1581C35.4871 26.1611 36.349 26.0241 37.1725 25.7523L40.638 32.4115H43.4786L39.4896 24.5227ZM39.3273 20.5539C39.2921 20.6297 39.2515 20.7068 39.2055 20.7852C39.1641 20.8649 39.118 20.9422 39.0676 21.0165C39.0226 21.092 38.9739 21.1652 38.9215 21.2357C38.8222 21.3779 38.7138 21.5134 38.5968 21.6415C38.5441 21.7064 38.4873 21.7673 38.4304 21.8281L38.2357 22.0229L36.231 18.0542H33.1753L35.9185 23.3296L35.6223 23.3986H35.5087C35.4391 23.4147 35.3686 23.4269 35.2976 23.4351H35.1597C34.955 23.4595 34.749 23.4717 34.5429 23.4716C33.1317 23.4749 31.7765 22.92 30.773 21.9278C29.7695 20.9357 29.1991 19.587 29.1862 18.1759C29.1862 16.7585 29.7493 15.3991 30.7516 14.3968C31.7539 13.3946 33.1132 12.8315 34.5307 12.8315C35.9481 12.8315 37.3075 13.3946 38.3098 14.3968C39.312 15.3991 39.8751 16.7585 39.8751 18.1759C39.8759 18.5372 39.8391 18.8976 39.7655 19.2513C39.7655 19.3 39.7655 19.3446 39.7331 19.3933C39.7248 19.4456 39.7126 19.4971 39.6966 19.5475C39.6722 19.6368 39.6479 19.722 39.6195 19.8072C39.591 19.8925 39.5626 19.9777 39.5302 20.0629C39.5006 20.1471 39.4667 20.2297 39.4287 20.3104C39.4012 20.3935 39.3686 20.4748 39.3313 20.5539H39.3273Z" fill="white"/>
<path d="M23.0009 18.1029C22.1298 17.2476 20.974 16.7434 19.7545 16.6866H12.2796C12.0171 16.7004 11.7546 16.6592 11.509 16.5657C11.2633 16.4721 11.0399 16.3283 10.8531 16.1434C10.6663 15.9585 10.5202 15.7366 10.4241 15.4919C10.328 15.2472 10.2841 14.9852 10.2952 14.7225C10.2997 14.4529 10.3586 14.1869 10.4683 13.9406C10.578 13.6942 10.7363 13.4725 10.9337 13.2887C11.1311 13.105 11.3635 12.963 11.6171 12.8711C11.8707 12.7793 12.1402 12.7396 12.4095 12.7544H23.0009L22.9685 10.1045H12.3567C9.75146 10.1045 7.66968 12.0402 7.66968 14.6211C7.62609 15.4018 7.77667 16.1812 8.10795 16.8895C8.54684 17.6366 9.17469 18.2549 9.92836 18.6823C10.682 19.1097 11.535 19.3312 12.4014 19.3243H19.0971L19.9087 19.3568C20.1766 19.3641 20.4404 19.4245 20.6849 19.5343C20.9293 19.6441 21.1496 19.8013 21.333 19.9968C21.5163 20.1922 21.6592 20.422 21.7532 20.673C21.8473 20.924 21.8907 21.1911 21.8809 21.4589C21.8737 21.7303 21.8122 21.9976 21.6998 22.2449C21.5874 22.4921 21.4265 22.7142 21.2267 22.8982C21.0269 23.0821 20.7922 23.224 20.5365 23.3156C20.2809 23.4071 20.0094 23.4464 19.7383 23.4311H0V26.2717H19.7586C21.0168 26.2814 22.2275 25.7918 23.1252 24.9101C24.0229 24.0284 24.5342 22.8266 24.547 21.5684C24.5475 20.9146 24.41 20.2679 24.1436 19.6708C23.8771 19.0736 23.4878 18.5394 23.0009 18.1029Z" fill="white"/>
<path d="M186 16.8569H169.041V19.5434H186V16.8569Z" fill="white"/>
</svg>
