<svg width="45" height="45" viewBox="0 0 45 45" fill="none" xmlns="http://www.w3.org/2000/svg">
<circle cx="22.5" cy="22.5" r="21.5" stroke="#FD287E" stroke-width="2"/>
<path d="M30.4603 21.3895L18.3505 13.182C18.2011 13.0806 18.0275 13.0224 17.8481 13.0134C17.6688 13.0045 17.4904 13.0452 17.332 13.1311C17.1735 13.2171 17.041 13.3452 16.9485 13.5017C16.856 13.6582 16.807 13.8373 16.8066 14.0199V30.44C16.8073 30.6221 16.8564 30.8008 16.9488 30.9569C17.0411 31.113 17.1733 31.2408 17.3314 31.3267C17.4894 31.4126 17.6673 31.4534 17.8463 31.4448C18.0253 31.4362 18.1986 31.3785 18.348 31.2779L30.4603 23.0703C30.5964 22.9782 30.7081 22.8533 30.7854 22.7066C30.8626 22.56 30.903 22.3962 30.903 22.2299C30.903 22.0636 30.8626 21.8998 30.7854 21.7532C30.7081 21.6066 30.5964 21.4816 30.4603 21.3895Z" fill="#FD287E"/>
</svg>
