<svg width="85" height="8" viewBox="0 0 85 8" fill="none" xmlns="http://www.w3.org/2000/svg">
<path d="M84 4.5C84.2761 4.5 84.5 4.27614 84.5 4C84.5 3.72386 84.2761 3.5 84 3.5L84 4.5ZM0.646446 3.64644C0.451187 3.8417 0.451187 4.15828 0.646446 4.35355L3.82843 7.53553C4.02369 7.73079 4.34027 7.73079 4.53554 7.53553C4.7308 7.34026 4.7308 7.02368 4.53554 6.82842L1.70711 3.99999L4.53554 1.17157C4.7308 0.976304 4.7308 0.659721 4.53554 0.464459C4.34027 0.269197 4.02369 0.269197 3.82843 0.464459L0.646446 3.64644ZM84 3.5L1 3.49999L1 4.49999L84 4.5L84 3.5Z" fill="white" fill-opacity="0.35"/>
</svg>
