<svg width="291" height="291" viewBox="0 0 291 291" fill="none" xmlns="http://www.w3.org/2000/svg">
<rect width="291" height="291" rx="145.5" fill="#292425"/>
<path d="M117.51 134.085C120.845 130.749 120.845 125.341 117.51 122.006C114.174 118.67 108.766 118.67 105.43 122.006C102.095 125.341 102.095 130.749 105.43 134.085C108.766 137.421 114.174 137.421 117.51 134.085Z" fill="#FD287E"/>
<path d="M149.881 99V127.763C149.881 132.303 146.204 136.487 141.69 136.487C140.512 136.473 139.349 136.227 138.267 135.763C137.184 135.299 136.204 134.626 135.382 133.783C134.56 132.939 133.913 131.942 133.477 130.848C133.042 129.754 132.826 128.584 132.844 127.407L132.999 115.279H128.375V127.498C128.378 131.028 129.782 134.412 132.279 136.909C134.775 139.405 138.16 140.809 141.69 140.812C145.016 140.811 148.205 139.489 150.557 137.137C152.909 134.785 154.231 131.595 154.233 128.269V99H149.881Z" fill="white"/>
<path d="M164.402 115.097H159.895V140.962H164.402V115.097Z" fill="white"/>
<path d="M189.15 140.871H170.4V115.149H189.15C192.613 115.152 195.934 116.53 198.383 118.978C200.831 121.427 202.209 124.748 202.212 128.211C202.212 135.41 196.356 140.871 189.15 140.871ZM174.759 136.512H189.15C193.949 136.512 197.854 133.004 197.854 128.211C197.852 125.903 196.934 123.69 195.303 122.058C193.671 120.426 191.458 119.509 189.15 119.507H174.759V136.512Z" fill="white"/>
<path d="M148.934 176.599H154.045L141.145 151.001L128.336 176.599H133.408L141.145 161.144L148.934 176.599Z" fill="white"/>
<path d="M141.145 161.145L133.408 176.6H148.935L141.145 161.145Z" fill="#FD287E"/>
<path d="M157.902 176.652V151.053H162.196L172.774 171.612L183.151 151.112H187.548V176.872H183.306V160.503L175.42 176.652H170.322L162.254 160.769V176.71C162.254 176.71 157.961 176.71 157.902 176.652Z" fill="white"/>
<path d="M197.784 155.243H219.192V151.06H193.49V176.658H219.192V172.306H197.784V155.243Z" fill="white"/>
<path d="M219.198 155.243H197.783V172.306H219.198V155.243Z" fill="#FD287E"/>
<path d="M126.052 176.645L123.795 172.287L118.302 161.663H103.113V165.957H115.669L118.866 172.267H104.916C100.376 172.267 96.1864 168.596 96.1864 164.082C96.2 162.904 96.4457 161.741 96.9096 160.658C97.3735 159.575 98.0464 158.595 98.8898 157.772C99.7332 156.95 100.731 156.302 101.825 155.866C102.919 155.429 104.088 155.213 105.266 155.23L123.627 155.353L125.761 150.813V150.761L119.398 138.16C121.839 136.32 123.546 133.673 124.214 130.692C124.883 127.71 124.469 124.587 123.048 121.882C121.627 119.177 119.29 117.065 116.455 115.925C113.62 114.784 110.472 114.688 107.573 115.654C104.674 116.62 102.213 118.586 100.629 121.2C99.046 123.813 98.4435 126.905 98.9294 129.922C99.4154 132.939 100.958 135.685 103.282 137.669C105.606 139.653 108.56 140.747 111.616 140.754C113.002 140.762 114.38 140.543 115.695 140.105L121.234 150.754H105.143C101.613 150.758 98.228 152.162 95.7317 154.658C93.2355 157.154 91.8316 160.539 91.8281 164.069C91.8333 167.396 93.1573 170.584 95.5099 172.935C97.8624 175.287 101.052 176.609 104.378 176.612H121.071L128.497 191.27H133.647L126.052 176.645ZM111.466 136.584C109.482 136.584 107.56 135.893 106.029 134.63C104.499 133.366 103.456 131.61 103.08 129.661C102.703 127.713 103.017 125.694 103.967 123.952C104.918 122.21 106.445 120.853 108.286 120.115C110.128 119.376 112.17 119.301 114.06 119.904C115.951 120.507 117.573 121.749 118.647 123.417C119.722 125.086 120.182 127.076 119.948 129.047C119.715 131.017 118.803 132.845 117.368 134.216L114.164 127.873H109.281L113.671 136.305C112.951 136.49 112.21 136.584 111.466 136.584Z" fill="white"/>
<path d="M93.0218 127.939C91.6296 126.572 89.7824 125.766 87.8334 125.675H75.887C75.4675 125.697 75.048 125.632 74.6554 125.482C74.2628 125.333 73.9057 125.103 73.6072 124.807C73.3086 124.512 73.075 124.157 72.9215 123.766C72.768 123.375 72.6978 122.956 72.7156 122.536C72.7227 122.105 72.817 121.679 72.9928 121.285C73.1685 120.891 73.4221 120.536 73.7382 120.242C74.0544 119.949 74.4267 119.722 74.8327 119.575C75.2387 119.429 75.6701 119.366 76.101 119.391H93.0218L92.97 115.156H76.0102C71.853 115.156 68.5194 118.249 68.5194 122.374C68.453 123.622 68.6935 124.867 69.2199 126C69.9209 127.189 70.9218 128.174 72.1224 128.855C73.323 129.537 74.6815 129.892 76.0621 129.884H86.7633L88.0604 129.936C88.4897 129.953 88.9114 130.054 89.3017 130.234C89.6919 130.413 90.0429 130.668 90.3347 130.983C90.6265 131.298 90.8533 131.668 91.0022 132.071C91.1512 132.474 91.2193 132.902 91.2026 133.332C91.186 133.761 91.085 134.183 90.9054 134.573C90.7258 134.963 90.4711 135.314 90.1558 135.606C89.8406 135.898 89.4709 136.124 89.068 136.273C88.665 136.422 88.2367 136.49 87.8074 136.474H56.2617V141.014H87.8399C88.8416 141.025 89.8356 140.838 90.7646 140.463C91.6937 140.088 92.5394 139.534 93.2532 138.831C93.9669 138.128 94.5345 137.291 94.9234 136.367C95.3122 135.444 95.5146 134.453 95.5188 133.452C95.5125 132.409 95.287 131.379 94.8568 130.43C94.4266 129.48 93.8014 128.631 93.0218 127.939Z" fill="white"/>
<path d="M234.38 161.631H207.277V165.924H234.38V161.631Z" fill="white"/>
</svg>
